<svg width="605" height="700" viewBox="0 0 605 700" fill="none" xmlns="http://www.w3.org/2000/svg">
<path fill-rule="evenodd" clip-rule="evenodd" d="M271.57 72.6108C288.719 70.1226 302.938 60.2493 311.362 46.7605C314.885 41.1184 321.51 37.584 327.889 39.4702C334.525 41.4325 338.314 48.4031 336.352 55.0395L316.996 120.501C315.37 125.999 309.649 129.19 304.117 127.684L298.567 126.174C296.014 125.479 293.382 126.985 292.687 129.538C291.992 132.09 293.498 134.723 296.051 135.417L301.283 136.841C306.809 138.345 310.018 144.099 308.394 149.591L207.904 489.444C208.609 494.194 209.87 498.72 211.797 502.945C222.799 520.654 246.414 530.674 272.103 537.454L523.804 536.352C568.452 536.156 604.804 572.191 604.999 616.838C605.195 661.486 569.16 697.838 524.512 698.033L81.1956 699.974C36.5484 700.17 0.196268 664.135 0.000791537 619.487C-0.0638164 604.731 3.82943 590.88 10.6833 578.942L151.152 103.885C153.631 95.5007 162.356 90.6343 170.792 92.9302L181.684 95.8945C184.237 96.5892 186.869 95.0831 187.564 92.5305C188.259 89.978 186.753 87.3455 184.2 86.6509L173.742 83.8047C165.285 81.5031 160.374 72.6982 162.859 64.2933L178.889 10.0828C181.092 2.63204 188.918 -1.62201 196.368 0.581086C203.681 2.74337 207.734 10.3848 207.681 18.0103C207.662 20.7174 207.846 23.4587 208.247 26.2176C212.609 56.2813 240.96 77.0523 271.57 72.6108ZM191.98 95.8318C192.675 93.2792 195.307 91.7731 197.86 92.4678L217.769 97.8862C220.322 98.5809 221.828 101.213 221.133 103.766C220.438 106.318 217.806 107.825 215.253 107.13L195.344 101.711C192.791 101.017 191.285 98.3844 191.98 95.8318ZM254.702 115.001C255.397 112.449 253.891 109.816 251.338 109.122L231.429 103.703C228.876 103.008 226.244 104.515 225.549 107.067C224.854 109.62 226.36 112.252 228.913 112.947L248.822 118.365C251.375 119.06 254.007 117.554 254.702 115.001ZM259.118 118.302C259.813 115.75 262.445 114.244 264.998 114.938L284.907 120.357C287.46 121.052 288.966 123.684 288.271 126.237C287.576 128.789 284.944 130.295 282.391 129.601L262.482 124.182C259.929 123.487 258.423 120.855 259.118 118.302Z" fill="#DF35FF"/>
</svg>
