<svg width="1370" height="1257" viewBox="0 0 1370 1257" fill="none" xmlns="http://www.w3.org/2000/svg">
<rect width="1370" height="1257" fill="white"/>
<path fill-rule="evenodd" clip-rule="evenodd" d="M653.57 314.611C670.719 312.123 684.938 302.249 693.362 288.76C696.885 283.118 703.51 279.584 709.889 281.47C716.525 283.432 720.314 290.403 718.352 297.04L698.996 362.501C697.37 367.999 691.649 371.19 686.117 369.684L680.567 368.174C678.014 367.479 675.382 368.985 674.687 371.538C673.992 374.09 675.498 376.723 678.051 377.417L683.283 378.841C688.809 380.345 692.018 386.099 690.394 391.591L589.904 731.444C590.609 736.194 591.87 740.72 593.797 744.945C604.799 762.654 628.414 772.674 654.103 779.454L905.804 778.352C950.452 778.156 986.804 814.191 986.999 858.838C987.195 903.486 951.16 939.838 906.512 940.033L463.196 941.974C418.548 942.17 382.196 906.135 382.001 861.487C381.936 846.731 385.829 832.88 392.683 820.942L533.152 345.885C535.631 337.501 544.356 332.634 552.792 334.93L563.684 337.894C566.237 338.589 568.869 337.083 569.564 334.531C570.259 331.978 568.753 329.346 566.2 328.651L555.742 325.805C547.285 323.503 542.374 314.698 544.859 306.293L560.889 252.083C563.092 244.632 570.918 240.378 578.368 242.581C585.681 244.743 589.734 252.385 589.681 260.01C589.662 262.717 589.846 265.459 590.247 268.218C594.609 298.281 622.96 319.052 653.57 314.611ZM573.98 337.832C574.675 335.279 577.307 333.773 579.86 334.468L599.769 339.886C602.322 340.581 603.828 343.213 603.133 345.766C602.438 348.318 599.806 349.825 597.253 349.13L577.344 343.711C574.791 343.017 573.285 340.384 573.98 337.832ZM636.702 357.001C637.397 354.449 635.891 351.816 633.338 351.122L613.429 345.703C610.876 345.008 608.244 346.515 607.549 349.067C606.854 351.62 608.36 354.252 610.913 354.947L630.822 360.365C633.375 361.06 636.007 359.554 636.702 357.001ZM641.118 360.302C641.813 357.75 644.445 356.244 646.998 356.938L666.907 362.357C669.46 363.052 670.966 365.684 670.271 368.237C669.576 370.789 666.944 372.295 664.391 371.601L644.482 366.182C641.929 365.487 640.423 362.855 641.118 360.302Z" fill="#DF35FF"/>
</svg>
